<?xml version="1.0" standalone="no"?>
<!DOCTYPE svg PUBLIC "-//W3C//DTD SVG 1.1//EN" "http://www.w3.org/Graphics/SVG/1.1/DTD/svg11.dtd" >
<svg xmlns="http://www.w3.org/2000/svg">
<metadata></metadata>
<defs>
<font id="stangerregular" horiz-adv-x="1462" >
<font-face units-per-em="2048" ascent="1463" descent="-585" />
<missing-glyph horiz-adv-x="585" />
<glyph horiz-adv-x="2048" />
<glyph horiz-adv-x="2048" />
<glyph unicode="&#xd;" horiz-adv-x="585" />
<glyph unicode=" "  horiz-adv-x="585" />
<glyph unicode="&#x09;" horiz-adv-x="585" />
<glyph unicode="&#xa0;" horiz-adv-x="585" />
<glyph unicode="!" horiz-adv-x="585" d="M219 0v146h147v-146h-147zM219 439v731h147v-731h-147z" />
<glyph unicode="&#x22;" horiz-adv-x="1024" d="M219 878v585h147v-585h-147zM658 878v585h147v-585h-147z" />
<glyph unicode="#" horiz-adv-x="1609" d="M219 293v146h293v292h-293v147h293v292h146v-292h293v292h146v-292h293v-147h-293v-292h293v-146h-293v-293h-146v293h-293v-293h-146v293h-293zM658 445h293v281h-293v-281z" />
<glyph unicode="$" d="M219 0v146h732v147h146v278h-731v146h-147v161h147v146h146v146h219v293h147v-293h365v-161h-731v-146h-146v-132h731v-146h146v-307h-146v-146h-146v-132h-146v-293h-147v293h-439z" />
<glyph unicode="%" horiz-adv-x="1609" d="M219 0v146h147v147h146v146h146v146h147v146h146v147h146v146h146v146h147v-161h-147v-146h-146v-146h-146v-146h-146v-147h-147v-146h-146v-146h-146v-132h-147zM219 863v161h147v146h146v-146h146v-161h-146v-132h-146v132h-147zM366 884h146v120h-146v-120zM951 132 v161h146v146h146v-146h147v-161h-147v-132h-146v132h-146zM1097 152h146v120h-146v-120z" />
<glyph unicode="&#x26;" horiz-adv-x="1609" d="M219 146v439h147v146h146v293h146v146h147v-146h146v-307h-146v-132h146v-146h146v-146h146v146h147v-161h-147v-132h147v-146h-147v132h-146v-132h-731v146h-147zM366 152h731v135h-146v146h-146v146h-147v147h-146v-147h-146v-427zM658 737h147v281h-147v-281z" />
<glyph unicode="'" horiz-adv-x="585" d="M219 878v585h147v-585h-147z" />
<glyph unicode="(" horiz-adv-x="877" d="M219 278v600h147v146h146v146h146v-161h-146v-146h-146v-570h146v-147h146v-146h-146v132h-146v146h-147z" />
<glyph unicode=")" horiz-adv-x="877" d="M73 0v146h146v147h147v570h-147v146h-146v161h146v-146h147v-146h146v-600h-146v-146h-147v-132h-146z" />
<glyph unicode="*" horiz-adv-x="1170" d="M219 439v146h147v146h146v132h-146v146h-147v161h147v-146h146v-146h146v146h147v146h146v-161h-146v-146h-147v-132h147v-146h146v-146h-146v132h-147v146h-146v-146h-146v-132h-147z" />
<glyph unicode="+" horiz-adv-x="1170" d="M219 439v146h293v293h146v-293h293v-146h-293v-293h-146v293h-293z" />
<glyph unicode="," horiz-adv-x="585" d="M219 -293v586h147v-586h-147z" />
<glyph unicode="-" horiz-adv-x="1170" d="M219 731v147h732v-147h-732z" />
<glyph unicode="." horiz-adv-x="585" d="M219 0v146h147v-146h-147z" />
<glyph unicode="/" horiz-adv-x="1609" d="M219 0v146h147v147h146v146h146v146h147v146h146v147h146v146h146v146h147v-161h-147v-146h-146v-146h-146v-146h-146v-147h-147v-146h-146v-146h-146v-132h-147z" />
<glyph unicode="0" d="M219 293v585h147v146h146v146h439v-146h146v-146h146v-585h-146v-147h-146v-146h-439v146h-146v147h-147zM366 298h146v-146h439v146h146v574h-146v146h-439v-146h-146v-574z" />
<glyph unicode="1" horiz-adv-x="877" d="M219 731v147h147v146h146v146h146v-1170h-146v863h-146v-132h-147z" />
<glyph unicode="2" horiz-adv-x="1170" d="M219 0v293h147v146h146v146h146v146h147v293h-586v146h732v-453h-146v-146h-147v-147h-146v-146h-146v-132h585v-146h-732z" />
<glyph unicode="3" horiz-adv-x="1170" d="M219 0v146h439v147h147v278h-147v146h-146v161h146v146h-439v146h732v-146h-146v-161h-147v-132h147v-146h146v-307h-146v-146h-147v-132h-439z" />
<glyph unicode="4" horiz-adv-x="1170" d="M73 439v731h146v-585h586v585h146v-1170h-146v439h-732z" />
<glyph unicode="5" horiz-adv-x="1170" d="M219 0v146h439v147h147v278h-586v599h732v-146h-585v-293h439v-146h146v-307h-146v-146h-147v-132h-439z" />
<glyph unicode="6" horiz-adv-x="1170" d="M219 132v746h147v146h146v146h293v-161h-293v-146h-146v-278h439v-146h146v-307h-146v-132h-439v132h-147zM366 152h439v266h-439v-266z" />
<glyph unicode="7" horiz-adv-x="1170" d="M219 1024v146h732v-453h-146v-146h-147v-571h-146v585h146v146h147v293h-586z" />
<glyph unicode="8" horiz-adv-x="1170" d="M219 132v453h147v132h-147v307h147v146h439v-146h146v-307h-146v-132h146v-453h-146v-132h-439v132h-147zM366 152h439v413h-439v-413zM366 737h439v267h-439v-267z" />
<glyph unicode="9" horiz-adv-x="1170" d="M219 731v293h147v146h439v-146h146v-746h-146v-146h-147v-132h-292v146h292v147h147v292h-439v146h-147zM366 737h439v281h-439v-281z" />
<glyph unicode=":" horiz-adv-x="585" d="M219 0v146h147v-146h-147zM219 731v147h147v-147h-147z" />
<glyph unicode=";" horiz-adv-x="585" d="M219 -293v586h147v-586h-147zM219 731v147h147v-147h-147z" />
<glyph unicode="&#x3c;" horiz-adv-x="877" d="M219 424v161h147v146h146v147h146v-161h-146v-146h-146v-132h146v-146h146v-147h-146v132h-146v146h-147z" />
<glyph unicode="=" horiz-adv-x="1170" d="M219 146v147h732v-147h-732zM219 585v146h732v-146h-732z" />
<glyph unicode="&#x3e;" horiz-adv-x="877" d="M219 146v147h147v146h146v132h-146v146h-147v161h147v-147h146v-146h146v-161h-146v-146h-146v-132h-147z" />
<glyph unicode="?" horiz-adv-x="1170" d="M219 1009v161h439v-146h147v-146h146v-161h-146v-146h-147v-132h-146v146h146v146h147v132h-147v146h-439zM512 0v146h146v-146h-146z" />
<glyph unicode="@" d="M73 -15v1332h1170v-1317h-146v146h-146v132h-146v-132h-439v732h146v146h293v-146h146v-585h146v877h-878v-1170h732v-146h-732v131h-146zM512 298h293v574h-293v-574z" />
<glyph unicode="A" d="M219 0v1463h1024v-1463h-146v731h-731v-731h-147zM366 884h731v427h-731v-427z" />
<glyph unicode="B" d="M219 0v1463h732v-146h146v-147h146v-146h-146v-146h-146v-147h146v-146h146v-292h-146v-147h-146v-146h-732zM366 152h585v146h146v281h-146v147h-585v-574zM366 884h585v146h146v134h-146v147h-585v-427z" />
<glyph unicode="C" d="M219 278v892h147v147h146v146h731v-161h-731v-146h-146v-863h146v-147h731v-146h-731v132h-146v146h-147z" />
<glyph unicode="D" d="M219 0v1463h732v-146h146v-147h146v-877h-146v-147h-146v-146h-732zM366 152h585v146h146v866h-146v147h-585v-1159z" />
<glyph unicode="E" d="M219 0v1463h1024v-146h-877v-439h877v-147h-877v-585h877v-146h-1024z" />
<glyph unicode="F" d="M219 0v1463h1024v-146h-877v-439h877v-147h-877v-731h-147z" />
<glyph unicode="G" d="M219 278v892h147v147h146v146h731v-161h-731v-146h-146v-863h146v-147h585v585h-439v147h585v-878h-731v132h-146v146h-147z" />
<glyph unicode="H" d="M219 0v1463h147v-585h731v585h146v-1463h-146v731h-731v-731h-147z" />
<glyph unicode="I" horiz-adv-x="1170" d="M219 0v146h293v1171h-293v146h732v-146h-293v-1171h293v-146h-732z" />
<glyph unicode="J" horiz-adv-x="1170" d="M219 0v146h439v147h147v1024h-586v146h732v-1185h-146v-146h-147v-132h-439z" />
<glyph unicode="K" d="M219 0v1463h147v-585h146v146h146v146h147v147h146v146h292v-161h-292v-146h-146v-147h-147v-146h-146v-132h146v-146h147v-146h146v-146h146v-147h146v-146h-146v132h-146v146h-146v146h-147v147h-146v146h-146v-717h-147z" />
<glyph unicode="L" d="M219 0v1463h147v-1317h877v-146h-1024z" />
<glyph unicode="M" horiz-adv-x="1755" d="M219 0v1463h147v-146h146v-147h146v-146h147v-146h146v146h146v146h146v147h147v146h146v-1463h-146v1156h-147v-147h-146v-146h-146v-132h-146v132h-147v146h-146v147h-146v-1156h-147z" />
<glyph unicode="N" d="M219 0v1463h147v-146h146v-147h146v-146h147v-146h146v-147h146v732h146v-1463h-146v585h-146v132h-146v146h-147v146h-146v147h-146v-1156h-147z" />
<glyph unicode="O" d="M219 293v877h147v147h146v146h439v-146h146v-147h146v-877h-146v-147h-146v-146h-439v146h-146v147h-147zM366 298h146v-146h439v146h146v866h-146v147h-439v-147h-146v-866z" />
<glyph unicode="P" d="M219 0v1463h732v-146h146v-147h146v-146h-146v-146h-146v-147h-585v-731h-147zM366 884h585v146h146v134h-146v147h-585v-427z" />
<glyph unicode="Q" d="M219 293v877h147v147h146v146h439v-146h146v-147h146v-877h-146v-147h-146v-146h146v-146h146v-147h-146v132h-146v161h-439v146h-146v147h-147zM366 298h146v-146h439v146h146v866h-146v147h-439v-147h-146v-866z" />
<glyph unicode="R" d="M219 0v1463h732v-146h146v-147h146v-146h-146v-146h-146v-147h146v-146h146v-585h-146v571h-146v146h-585v-717h-147zM366 884h585v146h146v134h-146v147h-585v-427z" />
<glyph unicode="S" d="M219 1009v161h147v147h146v146h585v-161h-585v-146h-146v-132h146v-146h439v-147h146v-146h146v-307h-146v-146h-146v-132h-585v146h585v147h146v278h-146v146h-439v146h-146v146h-147z" />
<glyph unicode="T" horiz-adv-x="1755" d="M219 1317v146h1317v-146h-585v-1317h-146v1317h-586z" />
<glyph unicode="U" d="M219 278v1185h147v-1170h146v-147h439v147h146v1170h146v-1185h-146v-146h-146v-132h-439v132h-146v146h-147z" />
<glyph unicode="V" d="M219 571v892h147v-878h146v-146h146v-146h147v-147h146v147h146v1170h146v-1185h-146v-146h-146v-132h-146v132h-147v146h-146v146h-146v147h-147z" />
<glyph unicode="W" horiz-adv-x="1755" d="M219 278v1185h147v-1170h146v-147h146v147h147v1170h146v-1170h146v-147h146v147h147v1170h146v-1185h-146v-146h-147v-132h-146v132h-146v146h-146v-146h-147v-132h-146v132h-146v146h-147z" />
<glyph unicode="X" horiz-adv-x="1170" d="M219 0v731h147v132h-147v600h147v-585h439v-161h-439v-717h-147zM805 0v731h146v-731h-146zM805 863v600h146v-600h-146z" />
<glyph unicode="Y" horiz-adv-x="1170" d="M219 863v600h147v-585h146v-147h146v147h147v585h146v-600h-146v-146h-147v-717h-146v717h-146v146h-147z" />
<glyph unicode="Z" d="M219 0v439h147v146h146v146h146v147h147v146h146v146h146v147h-878v146h1024v-307h-146v-147h-146v-146h-146v-146h-147v-146h-146v-147h-146v-278h877v-146h-1024z" />
<glyph unicode="[" horiz-adv-x="877" d="M219 0v1170h439v-146h-292v-878h292v-146h-439z" />
<glyph unicode="\" horiz-adv-x="1609" d="M219 1009v161h147v-146h146v-146h146v-147h147v-146h146v-146h146v-146h146v-147h147v-146h-147v132h-146v146h-146v146h-146v147h-147v146h-146v146h-146v146h-147z" />
<glyph unicode="]" horiz-adv-x="877" d="M219 0v146h293v878h-293v146h439v-1170h-439z" />
<glyph unicode="^" horiz-adv-x="1170" d="M219 585v293h147v146h146v146h146v-146h147v-146h146v-293h-146v278h-147v146h-146v-146h-146v-278h-147z" />
<glyph unicode="_" horiz-adv-x="1170" d="M219 0v146h732v-146h-732z" />
<glyph unicode="a" d="M219 293v585h147v146h146v146h439v-146h146v-146h146v-878h-731v146h-146v147h-147zM366 298h146v-146h585v720h-146v146h-439v-146h-146v-574z" />
<glyph unicode="b" d="M219 0v1463h147v-293h585v-146h146v-146h146v-585h-146v-147h-146v-146h-732zM366 152h585v146h146v574h-146v146h-585v-866z" />
<glyph unicode="c" d="M219 278v600h147v146h146v146h731v-161h-731v-146h-146v-570h146v-147h731v-146h-731v132h-146v146h-147z" />
<glyph unicode="d" d="M219 278v600h147v146h146v146h585v293h146v-1463h-731v132h-146v146h-147zM366 298h146v-146h585v852h-585v-147h-146v-559z" />
<glyph unicode="e" d="M219 278v600h147v146h146v146h439v-146h146v-146h146v-293h-877v-292h146v-147h439v-146h-439v132h-146v146h-147zM366 737h731v135h-146v146h-439v-146h-146v-135z" />
<glyph unicode="f" horiz-adv-x="877" d="M219 0v1170h147v147h146v146h146v-161h-146v-146h-146v-278h292v-147h-292v-731h-147z" />
<glyph unicode="g" d="M219 293v585h147v146h146v146h439v-146h146v-146h146v-1185h-146v-132h-146v-146h-439v146h439v146h146v439h-146v-146h-439v146h-146v147h-147zM366 298h146v-146h439v146h146v574h-146v146h-439v-146h-146v-574z" />
<glyph unicode="h" d="M219 0v1463h147v-293h585v-146h146v-146h146v-878h-146v863h-146v146h-585v-1009h-147z" />
<glyph unicode="i" horiz-adv-x="585" d="M219 0v1170h147v-1170h-147zM219 1317v146h147v-146h-147z" />
<glyph unicode="j" horiz-adv-x="585" d="M-73 -439h146v146h146v1463h147v-1477h-147v-132h-146v-146h-146v146zM219 1317v146h147v-146h-147z" />
<glyph unicode="k" d="M219 0v1463h147v-585h146v146h146v146h585v-161h-585v-146h-146v-132h146v-146h147v-146h146v-146h146v-147h146v-146h-146v132h-146v146h-146v146h-147v147h-146v146h-146v-717h-147z" />
<glyph unicode="l" horiz-adv-x="585" d="M219 0v1463h147v-1463h-147z" />
<glyph unicode="m" horiz-adv-x="1755" d="M219 0v1170h439v-146h147v-146h146v146h146v146h146v-146h147v-146h146v-878h-146v863h-147v146h-146v-146h-146v-863h-146v863h-147v146h-292v-1009h-147z" />
<glyph unicode="n" d="M219 0v1170h732v-146h146v-146h146v-878h-146v863h-146v146h-585v-1009h-147z" />
<glyph unicode="o" d="M219 293v585h147v146h146v146h439v-146h146v-146h146v-585h-146v-147h-146v-146h-439v146h-146v147h-147zM366 298h146v-146h439v146h146v574h-146v146h-439v-146h-146v-574z" />
<glyph unicode="p" d="M219 -585v1755h732v-146h146v-146h146v-585h-146v-147h-146v-146h-585v-585h-147zM366 152h585v146h146v574h-146v146h-585v-866z" />
<glyph unicode="q" d="M219 293v585h147v146h146v146h731v-1755h-146v585h-585v146h-146v147h-147zM366 298h146v-146h585v866h-585v-146h-146v-574z" />
<glyph unicode="r" d="M219 0v878h147v146h146v146h731v-161h-731v-146h-146v-863h-147z" />
<glyph unicode="s" d="M219 0v146h732v147h146v131h-146v147h-585v146h-147v161h147v146h146v146h731v-161h-731v-146h-146v-132h585v-146h146v-146h146v-161h-146v-146h-146v-132h-732z" />
<glyph unicode="t" horiz-adv-x="1170" d="M219 1024v146h293v293h146v-293h293v-146h-293v-731h147v-147h146v-146h-146v132h-147v146h-146v746h-293z" />
<glyph unicode="u" d="M219 278v892h147v-877h146v-147h585v1024h146v-1170h-731v132h-146v146h-147z" />
<glyph unicode="v" d="M219 863v307h147v-292h146v-147h146v-438h147v-147h146v147h146v877h146v-892h-146v-146h-146v-132h-146v132h-147v146h-146v439h-146v146h-147z" />
<glyph unicode="w" horiz-adv-x="1755" d="M219 278v892h147v-877h146v-147h146v147h147v877h146v-877h146v-147h146v147h147v877h146v-892h-146v-146h-147v-132h-146v132h-146v146h-146v-146h-147v-132h-146v132h-146v146h-147z" />
<glyph unicode="x" horiz-adv-x="1170" d="M219 0v146h147v147h146v570h-146v146h-147v161h147v-146h146v-146h146v146h147v146h146v-161h-146v-146h-147v-570h147v-147h146v-146h-146v132h-147v146h-146v-146h-146v-132h-147z" />
<glyph unicode="y" d="M219 278v892h147v-877h146v-147h585v1024h146v-1331h-146v-146h-146v-146h-146v-132h-439v146h439v146h146v147h146v146h-585v132h-146v146h-147z" />
<glyph unicode="z" d="M219 0v293h147v146h146v146h146v146h147v147h146v146h-732v146h1024v-146h-146v-161h-146v-146h-146v-146h-147v-147h-146v-146h-146v-132h877v-146h-1024z" />
<glyph unicode="{" horiz-adv-x="1170" d="M219 717v161h293v292h146v147h147v146h146v-161h-146v-146h-147v-293h-146v-132h146v-438h147v-147h146v-146h-146v132h-147v146h-146v439h-293z" />
<glyph unicode="|" horiz-adv-x="585" d="M219 0v1463h147v-1463h-147z" />
<glyph unicode="}" horiz-adv-x="1170" d="M219 0v146h147v147h146v438h146v132h-146v293h-146v146h-147v161h147v-146h146v-147h146v-292h293v-161h-293v-439h-146v-146h-146v-132h-147z" />
<glyph unicode="~" d="M219 585v146h147v147h146v146h146v-146h147v-147h146v147h146v146h146v-161h-146v-146h-146v-132h-146v132h-147v146h-146v-146h-146v-132h-147z" />
<glyph unicode="&#xad;" horiz-adv-x="1170" d="M219 731v147h732v-147h-732z" />
<glyph unicode="&#x2000;" horiz-adv-x="731" />
<glyph unicode="&#x2001;" horiz-adv-x="1463" />
<glyph unicode="&#x2002;" horiz-adv-x="731" />
<glyph unicode="&#x2003;" horiz-adv-x="1463" />
<glyph unicode="&#x2004;" horiz-adv-x="487" />
<glyph unicode="&#x2005;" horiz-adv-x="365" />
<glyph unicode="&#x2006;" horiz-adv-x="243" />
<glyph unicode="&#x2007;" horiz-adv-x="243" />
<glyph unicode="&#x2008;" horiz-adv-x="182" />
<glyph unicode="&#x2009;" horiz-adv-x="292" />
<glyph unicode="&#x200a;" horiz-adv-x="81" />
<glyph unicode="&#x2010;" horiz-adv-x="1170" d="M219 731v147h732v-147h-732z" />
<glyph unicode="&#x2011;" horiz-adv-x="1170" d="M219 731v147h732v-147h-732z" />
<glyph unicode="&#x2012;" horiz-adv-x="1170" d="M219 731v147h732v-147h-732z" />
<glyph unicode="&#x2013;" d="M219 731v147h1024v-147h-1024z" />
<glyph unicode="&#x2014;" horiz-adv-x="2486" d="M219 731v147h2048v-147h-2048z" />
<glyph unicode="&#x202f;" horiz-adv-x="292" />
<glyph unicode="&#x205f;" horiz-adv-x="365" />
<glyph unicode="&#xe000;" horiz-adv-x="1170" d="M0 0v1170h1170v-1170h-1170z" />
</font>
</defs>
</svg>
